<svg width="32" height="32" viewBox="0 0 32 32" fill="none" xmlns="http://www.w3.org/2000/svg">
<g clip-path="url(#clip0_193_1217)">
<path d="M16 18.667C14.1621 18.667 12.6667 17.1716 12.6667 15.3335V14.0002C12.6667 12.1624 14.1621 10.667 16 10.667C17.8379 10.667 19.3332 12.1624 19.3332 14.0002V15.3335C19.3332 17.1716 17.8379 18.667 16 18.667ZM16 12.0002C14.8972 12.0002 14 12.8974 14 14.0002V15.3335C14 16.4363 14.8972 17.3335 16 17.3335C17.1028 17.3335 18 16.4363 18 15.3335V14.0002C18 12.8974 17.1028 12.0002 16 12.0002Z" fill="#A1A1A1"/>
<path d="M11.3333 22.6665H10V21.0232C10 20.5752 10.2219 20.1604 10.5948 19.9131L14 17.6431V17.333H15.3333V17.9998C15.3333 18.2224 15.2219 18.4304 15.0366 18.5544L11.3333 21.0232V22.6665ZM22 22.6665H20.6667V21.0232L16.9634 18.5544C16.8722 18.4935 16.7974 18.411 16.7456 18.3142C16.6939 18.2175 16.6668 18.1095 16.6667 17.9998V17.333H18V17.6431L21.406 19.9138C21.5889 20.0354 21.7388 20.2003 21.8425 20.3938C21.9461 20.5874 22.0002 20.8036 22 21.0232V22.6665Z" fill="#A1A1A1"/>
<path d="M16 32C10.7661 32 6.66675 24.9719 6.66675 16C6.66675 7.02812 10.7661 0 16 0C17.1406 0 18.1225 0.247312 19.0007 0.756562L18.3327 1.91C17.6626 1.52206 16.8999 1.33331 16 1.33331C11.5886 1.33331 8 7.91269 8 16.0001C8 24.0874 11.5886 30.6668 16 30.6668C20.4114 30.6668 24 24.0874 24 16C24 11.0901 22.3806 7.41062 21.416 5.65406L22.584 5.01194C24.3567 8.23812 25.3332 12.1399 25.3332 16C25.3332 24.9719 21.2339 32 16 32Z" fill="#A1A1A1"/>
<path d="M22.6668 27.3335C18.9299 27.3335 15.0108 26.2095 11.3333 24.0843C3.56325 19.5989 -0.474121 12.5342 2.14263 8.00027C3.40794 5.80689 6.032 4.60352 9.53857 4.60352C9.58594 4.60352 9.63332 4.60352 9.68069 4.60427C13.1201 4.63627 17.0213 5.81227 20.6668 7.91627C26.7414 11.4216 30.6668 16.427 30.6668 20.667C30.6668 21.4968 30.5574 22.2568 30.3406 22.9256C30.2281 23.2762 29.854 23.4683 29.5012 23.355C29.1514 23.2417 28.9593 22.8662 29.072 22.5156C29.2454 21.9795 29.3333 21.3577 29.3333 20.667C29.3333 16.9529 25.5828 12.2923 20 9.07077C16.5508 7.07964 12.8814 5.96683 9.66794 5.93752C6.57469 5.90433 4.32938 6.87895 3.29732 8.66702C1.09213 12.4883 4.99613 18.8863 12 22.9297C15.426 24.9097 19.2141 26.0003 22.6668 26.0003C24.2901 26.0003 25.4741 25.8069 26.3926 25.3928C26.7273 25.2391 27.1226 25.3909 27.2739 25.7263C27.4253 26.0615 27.2766 26.4571 26.9407 26.6077C25.844 27.1031 24.4861 27.3335 22.6668 27.3335Z" fill="#A1A1A1"/>
<path d="M9.54738 27.3867C6.94875 27.3867 4.71875 26.7166 3.23463 25.3501C2.96413 25.1006 2.94675 24.6787 3.19606 24.4079C3.44456 24.1374 3.86594 24.1201 4.13794 24.3694C7.07544 27.0747 13.8941 26.4553 19.9993 22.9287C27.0039 18.886 30.908 12.4881 28.7026 8.66675C27.6699 6.87794 25.3948 5.91213 22.332 5.93725C19.1186 5.96656 15.4493 7.08006 12 9.07056C6.41725 12.292 2.66675 16.9526 2.66675 20.6667C2.66675 21.0354 2.36794 21.3333 2 21.3333C1.63206 21.3333 1.33325 21.0354 1.33325 20.6667C1.33325 16.4268 5.25856 11.4214 11.3333 7.916C14.9788 5.812 18.8799 4.636 22.3193 4.604C25.9188 4.57325 28.5747 5.77812 29.8575 8C32.4742 12.5339 28.4369 19.5986 20.6668 24.084C16.8887 26.2654 12.9095 27.3867 9.54744 27.3867H9.54738ZM19.3333 4C18.2308 4 17.3333 3.10281 17.3333 2C17.3333 0.897187 18.2308 0 19.3333 0C20.4361 0 21.3333 0.897187 21.3333 2C21.3333 3.10281 20.4361 4 19.3333 4ZM19.3333 1.33325C18.9653 1.33325 18.6668 1.63262 18.6668 2C18.6668 2.36737 18.9653 2.66675 19.3333 2.66675C19.7014 2.66675 20 2.36737 20 2C20 1.63262 19.7014 1.33325 19.3333 1.33325Z" fill="#A1A1A1"/>
<path d="M2.66675 26C1.56394 26 0.66675 25.1028 0.66675 24C0.66675 22.8972 1.56394 22 2.66675 22C3.76925 22 4.66675 22.8972 4.66675 24C4.66675 25.1028 3.76925 26 2.66675 26ZM2.66675 23.3333C2.29931 23.3333 2 23.6321 2 24C2 24.3679 2.29938 24.6667 2.66675 24.6667C3.03394 24.6667 3.33325 24.3679 3.33325 24C3.33325 23.6321 3.03394 23.3333 2.66675 23.3333ZM29.3333 26C28.2308 26 27.3333 25.1028 27.3333 24C27.3333 22.8972 28.2308 22 29.3333 22C30.4361 22 31.3333 22.8972 31.3333 24C31.3333 25.1028 30.4361 26 29.3333 26ZM29.3333 23.3333C28.9653 23.3333 28.6667 23.6321 28.6667 24C28.6667 24.3679 28.9653 24.6667 29.3333 24.6667C29.7014 24.6667 30 24.3679 30 24C30 23.6321 29.7014 23.3333 29.3333 23.3333ZM30.6667 15.3333H32V16.6667H30.6667V15.3333ZM23.3333 28.6667H24.6667V30H23.3333V28.6667ZM7.33325 28.6667H8.66675V30H7.33325V28.6667ZM23.3333 2H24.6667V3.33325H23.3333V2ZM7.33325 2H8.66675V3.33325H7.33325V2ZM0 15.3333H1.33325V16.6667H0V15.3333Z" fill="#A1A1A1"/>
</g>
<defs>
<clipPath id="clip0_193_1217">
<rect width="32" height="32" fill="white"/>
</clipPath>
</defs>
</svg>
