<svg width="32" height="32" viewBox="0 0 32 32" fill="none" xmlns="http://www.w3.org/2000/svg">
<path d="M30.06 9.9375C30.0606 9.67473 30.0091 9.41444 29.9085 9.17172C29.8078 8.929 29.6599 8.70867 29.4735 8.5235L27.7955 6.845L29.0955 5.545C29.4228 5.21702 29.6066 4.7726 29.6066 4.30925C29.6066 3.84591 29.4228 3.40149 29.0955 3.0735C28.9406 2.87807 28.7465 2.71733 28.5255 2.60168C28.3046 2.48602 28.0619 2.41803 27.8131 2.4021C27.5642 2.38617 27.3148 2.42266 27.081 2.5092C26.8471 2.59575 26.634 2.73042 26.4555 2.9045L25.1555 4.2045L23.4765 2.526C23.1014 2.15106 22.5928 1.94043 22.0625 1.94043C21.5322 1.94043 21.0236 2.15106 20.6485 2.526L19.153 4.0215C16.7 1.7215 12.948 5.565 15.318 7.9635L18.3575 11.0025L11.0025 18.3575L7.9635 15.3185C5.5685 12.9505 1.727 16.6935 4.0215 19.1525L2.5265 20.648C2.34077 20.8337 2.19344 21.0542 2.09292 21.2969C1.99241 21.5395 1.94067 21.7996 1.94067 22.0623C1.94067 22.3249 1.99241 22.585 2.09292 22.8276C2.19344 23.0703 2.34077 23.2908 2.5265 23.4765L4.2045 25.155L2.9045 26.455C1.275 28.113 3.8765 30.7315 5.5445 29.096L6.8445 27.7955L8.5235 29.474C8.89855 29.8489 9.40717 30.0596 9.9375 30.0596C10.4678 30.0596 10.9764 29.8489 11.3515 29.474L12.847 27.9785C15.3 30.2785 19.052 26.4345 16.682 24.0365L13.6425 20.9975L20.9975 13.6425L24.0365 16.6815C24.3008 16.9384 24.6165 17.1366 24.9627 17.2629C25.309 17.3893 25.6781 17.441 26.0458 17.4146C26.4134 17.3883 26.7714 17.2845 27.0961 17.1101C27.4209 16.9356 27.705 16.6945 27.93 16.4025C28.3984 15.9324 28.6653 15.2984 28.6744 14.6348C28.6834 13.9713 28.4339 13.3302 27.9785 12.8475L29.4735 11.352C29.6599 11.1667 29.8077 10.9463 29.9082 10.7035C30.0088 10.4607 30.0607 10.2003 30.06 9.9375ZM27.1615 3.6115C27.8715 2.8905 29.109 4.1265 28.388 4.8375L27.088 6.1375L25.862 4.9115L27.1615 3.6115ZM4.838 28.3885C4.128 29.1095 2.8905 27.8735 3.6115 27.1625L4.9115 25.8625L6.1375 27.0885L4.838 28.3885ZM10.6445 28.767C10.454 28.9487 10.2008 29.0501 9.9375 29.0501C9.67421 29.0501 9.42104 28.9487 9.2305 28.767L3.2335 22.7695C3.04709 22.5813 2.94252 22.3271 2.94252 22.0623C2.94252 21.7974 3.04709 21.5432 3.2335 21.355L4.7235 19.865L12.135 27.2765L10.6445 28.767ZM15.9745 26.944C15.8185 27.1692 15.6099 27.3529 15.3668 27.4791C15.1236 27.6053 14.8534 27.6701 14.5794 27.6681C14.3055 27.666 14.0363 27.597 13.7951 27.4672C13.5539 27.3373 13.348 27.1505 13.1955 26.923L4.777 18.505C4.61378 18.3324 4.4902 18.1263 4.41487 17.901C4.33953 17.6758 4.31427 17.4368 4.34083 17.2007C4.3674 16.9647 4.44516 16.7373 4.56868 16.5344C4.6922 16.3315 4.85851 16.158 5.056 16.026C5.34798 15.7347 5.74357 15.5711 6.156 15.5711C6.56843 15.5711 6.96402 15.7347 7.256 16.026L15.975 24.7435C16.2662 25.0355 16.4297 25.4311 16.4297 25.8435C16.4297 26.2559 16.2662 26.6515 15.975 26.9435L15.9745 26.944ZM20.2905 12.936L12.9355 20.29L11.7095 19.0635L19.0645 11.7085L20.2905 12.936ZM27.223 15.6955C27.091 15.8931 26.9175 16.0595 26.7146 16.183C26.5116 16.3066 26.2842 16.3844 26.0481 16.411C25.8119 16.4375 25.5729 16.4122 25.3476 16.3369C25.1222 16.2615 24.9161 16.1378 24.7435 15.9745L16.0255 7.2565C15.7342 6.96452 15.5706 6.56893 15.5706 6.1565C15.5706 5.74407 15.7342 5.34848 16.0255 5.0565C16.1865 4.83929 16.3938 4.66064 16.6324 4.53351C16.871 4.40638 17.1349 4.33396 17.405 4.3215C17.6798 4.33542 17.948 4.4104 18.1902 4.541C18.4324 4.6716 18.6424 4.85454 18.805 5.0765L26.9235 13.1955L27.2235 13.4955C27.5148 13.7875 27.6784 14.1831 27.6784 14.5955C27.6784 15.0079 27.5143 15.4035 27.223 15.6955ZM28.7665 10.645L27.2765 12.135L19.865 4.7235L21.355 3.2335C21.5456 3.05152 21.799 2.94998 22.0625 2.94998C22.326 2.94998 22.5794 3.05152 22.77 3.2335L28.766 9.23C28.9524 9.41819 29.057 9.67237 29.057 9.93725C29.057 10.2021 28.9524 10.4563 28.766 10.6445L28.7665 10.645Z" fill="#A1A1A1"/>
</svg>
