<svg width="32" height="32" viewBox="0 0 32 32" fill="none" xmlns="http://www.w3.org/2000/svg">
<path d="M12.6667 23.333C12.2985 23.333 12 23.6315 12 23.9997C12 24.3678 12.2985 24.6663 12.6667 24.6663H19.3333C19.7015 24.6663 20 24.3678 20 23.9997C20 23.6315 19.7015 23.333 19.3333 23.333H12.6667Z" fill="#A1A1A1"/>
<path fill-rule="evenodd" clip-rule="evenodd" d="M18.8917 3.43357C17.1963 2.09506 14.8037 2.09506 13.1083 3.43357L4.44165 10.2757C3.32068 11.1607 2.66667 12.5102 2.66667 13.9384V24.6667C2.66667 27.244 4.756 29.3334 7.33333 29.3334H24.6667C27.244 29.3334 29.3333 27.244 29.3333 24.6667V13.9384C29.3333 12.5102 28.6793 11.1607 27.5584 10.2757L18.8917 3.43357ZM13.9345 4.48007C15.1456 3.52399 16.8544 3.52399 18.0655 4.48007L26.7321 11.3222C27.5328 11.9543 28 12.9183 28 13.9384V24.6667C28 26.5076 26.5076 28 24.6667 28H7.33333C5.49239 28 4 26.5076 4 24.6667V13.9384C4 12.9183 4.46715 11.9543 5.26785 11.3222L13.9345 4.48007Z" fill="#A1A1A1"/>
</svg>
