<svg width="32" height="32" viewBox="0 0 32 32" fill="none" xmlns="http://www.w3.org/2000/svg">
<g clip-path="url(#clip0_193_1213)">
<path d="M23.7869 12.7843L25.667 12.6651L25.677 12.6644C27.0169 12.5513 28.2195 11.8494 28.9768 10.7381L30.4631 8.55749C31.7569 6.65899 32.2581 4.36605 31.874 2.10111C31.7978 1.65496 31.5719 1.24805 31.2336 0.947361C30.8946 0.647405 30.4634 0.471891 30.0113 0.449736C27.7158 0.339924 25.5003 1.11261 23.7708 2.62455L21.7839 4.36161C20.7714 5.24661 20.2188 6.52474 20.2671 7.86874C20.2673 7.87186 20.2673 7.8753 20.2676 7.87874L20.3748 9.75936C20.4165 10.4925 20.1477 11.2159 19.6387 11.7427L4.11669 27.6885C3.70119 28.1219 3.48657 28.7164 3.51269 29.3626C3.5415 30.074 3.86794 30.7727 4.386 31.232C4.854 31.6468 5.49732 31.8831 6.14038 31.8831C6.20925 31.8831 6.27807 31.8804 6.34663 31.8748C6.99144 31.8233 7.55613 31.5392 7.9385 31.0719L21.905 13.754C22.3681 13.1841 23.0542 12.8307 23.7869 12.7843ZM21.1594 13.1504L7.19413 30.4669C6.98075 30.7276 6.65263 30.8882 6.27038 30.9187C5.8155 30.9551 5.34913 30.8037 5.0225 30.5142C4.69588 30.2244 4.48982 29.7796 4.4715 29.3238C4.45588 28.9407 4.57575 28.5957 4.80669 28.355L20.3274 12.4105C21.0233 11.6905 21.3894 10.7044 21.3328 9.70486L21.2256 7.82917C21.1893 6.77717 21.6226 5.77692 22.4154 5.0838L24.4022 3.34674C25.9441 1.99886 27.9203 1.31061 29.9656 1.4078C30.1986 1.41905 30.4227 1.5103 30.5973 1.66511C30.7721 1.82045 30.8889 2.03073 30.9283 2.2613C31.2706 4.28055 30.8238 6.32455 29.6705 8.01692L28.1841 10.1978C27.5911 11.0679 26.6499 11.618 25.6011 11.708L23.7261 11.8267C22.7271 11.8902 21.7921 12.3721 21.1595 13.1505L21.1594 13.1504Z" fill="#A1A1A1"/>
<path d="M31.1137 27.5669L20.7062 18.0877C20.6122 18.002 20.488 17.9572 20.3609 17.9631C20.2338 17.969 20.1143 18.0252 20.0286 18.1192C19.943 18.2133 19.8982 18.3376 19.9042 18.4646C19.9101 18.5917 19.9663 18.7112 20.0603 18.7969L30.465 28.274C30.7126 28.5028 30.8529 28.8399 30.8606 29.2232C30.8696 29.6793 30.6906 30.1356 30.3818 30.4444C30.0732 30.753 29.6176 30.9324 29.1606 30.9232C28.7773 30.9156 28.4401 30.7752 28.2138 30.5303L18.9399 20.3487C18.8543 20.2546 18.7347 20.1984 18.6076 20.1925C18.4805 20.1865 18.3563 20.2313 18.2622 20.3169C18.1681 20.4026 18.112 20.5222 18.1061 20.6493C18.1002 20.7764 18.145 20.9006 18.2307 20.9947L27.5069 31.1788C27.9146 31.6198 28.4952 31.8698 29.1419 31.8824C29.1587 31.8827 29.1754 31.8829 29.1922 31.8829C29.8872 31.8829 30.5823 31.6009 31.0601 31.1229C31.5499 30.6332 31.8338 29.9161 31.8196 29.2045C31.8069 28.5578 31.5572 27.9772 31.1138 27.567L31.1137 27.5669ZM5.78812 12.6929C6.58406 13.4265 7.62046 13.8442 8.70262 13.8675L10.5864 13.8734C11.3207 13.8756 12.0266 14.1873 12.522 14.7271L13.3518 15.638C13.3967 15.6875 13.4515 15.727 13.5126 15.754C13.5737 15.781 13.6398 15.7949 13.7066 15.7948C13.826 15.7949 13.9411 15.7503 14.0293 15.6698C14.0759 15.6274 14.1137 15.5762 14.1405 15.5192C14.1674 15.4621 14.1827 15.4004 14.1856 15.3375C14.1886 15.2745 14.1791 15.2116 14.1577 15.1523C14.1363 15.0931 14.1035 15.0386 14.0611 14.992L13.23 14.0799C12.5532 13.3421 11.5908 12.9173 10.5896 12.9139L8.71093 12.908C7.87691 12.8869 7.07813 12.5674 6.45968 12.0074L1.0005 5.51763C0.973644 5.48594 0.959731 5.44528 0.961539 5.40378C0.963346 5.36228 0.98074 5.32299 1.01025 5.29375C1.05225 5.2515 1.10156 5.24544 1.12718 5.24544C1.15281 5.24544 1.20218 5.2515 1.24437 5.29375L6.21362 10.2633C6.70487 10.7545 7.50412 10.7545 7.99537 10.263L8.57937 9.67925V9.679L9.61625 8.64213C9.61625 8.64213 9.61644 8.64213 9.61644 8.64194L9.61668 8.64169L10.2004 8.05794C10.6917 7.56669 10.6917 6.76738 10.2004 6.27619L5.23118 1.30694C5.20023 1.27585 5.18286 1.23376 5.18286 1.18988C5.18286 1.146 5.20023 1.10391 5.23118 1.07282C5.26042 1.04331 5.29971 1.02592 5.34121 1.02411C5.38271 1.0223 5.42337 1.03621 5.45506 1.06307L11.9448 6.5225C12.5049 7.14077 12.8246 7.93951 12.8457 8.7735L12.8513 10.6524C12.8547 11.6534 13.2798 12.6158 14.0186 13.294L14.9077 14.1038C14.9543 14.1463 15.0087 14.1791 15.068 14.2005C15.1273 14.2219 15.1901 14.2314 15.2531 14.2284C15.316 14.2255 15.3778 14.2102 15.4348 14.1834C15.4918 14.1566 15.543 14.1189 15.5854 14.0723C15.671 13.9782 15.7158 13.854 15.7098 13.7269C15.7039 13.5998 15.6477 13.4803 15.5537 13.3946L14.666 12.586C14.1247 12.0894 13.8132 11.3834 13.8108 10.6493L13.8049 8.7655C13.8049 8.762 13.8049 8.75863 13.8047 8.75519C13.779 7.67651 13.3615 6.64405 12.6303 5.85063C12.6166 5.83565 12.6019 5.82156 12.5864 5.80844L6.0725 0.328942C5.62231 -0.0499953 4.969 -0.0216828 4.553 0.39438C4.11425 0.83313 4.11425 1.54669 4.553 1.98519L9.52218 6.95463C9.57847 7.01104 9.61009 7.08747 9.61009 7.16716C9.61009 7.24685 9.57847 7.32329 9.52218 7.37969L9.27737 7.62432L3.739 2.08619C3.55175 1.89869 3.24806 1.89869 3.06081 2.08619C2.97088 2.17614 2.92035 2.29812 2.92035 2.42532C2.92035 2.55251 2.97088 2.6745 3.06081 2.76444L8.59912 8.30282L8.24025 8.66144L2.70187 3.12332C2.61193 3.0334 2.48996 2.98289 2.36278 2.98289C2.2356 2.98289 2.11363 3.0334 2.02368 3.12332C1.83618 3.31063 1.83618 3.61432 2.02368 3.80157L7.56181 9.33994L7.31712 9.58475C7.26072 9.64103 7.1843 9.67263 7.10462 9.67263C7.02495 9.67263 6.94853 9.64103 6.89212 9.58475L1.92256 4.61557C1.71012 4.40313 1.42768 4.28594 1.12712 4.28594C0.82656 4.28594 0.544185 4.40319 0.331872 4.61557C-0.0841902 5.03157 -0.112253 5.68488 0.266435 6.13532L5.74612 12.649C5.75912 12.6646 5.77325 12.6793 5.78812 12.6929Z" fill="#A1A1A1"/>
</g>
<defs>
<clipPath id="clip0_193_1213">
<rect width="32" height="32" fill="white"/>
</clipPath>
</defs>
</svg>
