<svg width="32" height="32" viewBox="0 0 32 32" fill="none" xmlns="http://www.w3.org/2000/svg">
<path d="M29.2274 30.6634L27.2801 8.97816C27.2545 8.69248 27.1229 8.42674 26.9112 8.2332C26.6995 8.03967 26.423 7.93235 26.1362 7.93235H22.1206V6.12128C22.1206 2.74601 19.3747 0 15.9996 0C12.6247 0 9.87912 2.74601 9.87912 6.12128V7.93235H5.8608C5.57396 7.93235 5.29751 8.03967 5.08581 8.2332C4.87411 8.42674 4.74248 8.69248 4.71682 8.97816L2.76195 30.7487C2.7477 30.9075 2.76669 31.0676 2.81771 31.2187C2.86872 31.3698 2.95065 31.5086 3.05826 31.6263C3.16588 31.744 3.29683 31.838 3.44277 31.9023C3.58871 31.9666 3.74644 31.9998 3.90593 31.9998H28.0943C28.261 31.9998 28.4257 31.9635 28.577 31.8935C28.7283 31.8234 28.8625 31.7212 28.9703 31.594C29.0782 31.4669 29.157 31.3177 29.2014 31.157C29.2458 30.9963 29.2546 30.8279 29.2274 30.6634ZM12.1763 6.12128C12.1763 4.01265 13.8915 2.29715 15.9998 2.29715C18.1083 2.29715 19.8236 4.01265 19.8236 6.12128V7.93235H12.1763V6.12128ZM5.16231 29.7029L6.9109 10.2295H9.87912V12.2834C9.87912 12.5881 10.0001 12.8802 10.2155 13.0956C10.4309 13.311 10.7231 13.432 11.0277 13.432C11.3323 13.432 11.6245 13.311 11.8399 13.0956C12.0553 12.8802 12.1763 12.5881 12.1763 12.2834V10.2295H19.8236V12.2834C19.8236 12.5881 19.9446 12.8802 20.16 13.0956C20.3754 13.311 20.6676 13.432 20.9722 13.432C21.2768 13.432 21.5689 13.311 21.7843 13.0956C21.9997 12.8802 22.1208 12.5881 22.1208 12.2834V10.2295H25.0862L26.8348 29.7029H5.16231Z" fill="#A1A1A1"/>
</svg>
